<svg xmlns="http://www.w3.org/2000/svg" xml:space="preserve" width="1500" height="1500" data-id="lg_FgwJq48A6SefWK0b9j" data-version="1" viewBox="0 0 1500 1500"><path fill="#ffccea" stroke="transparent" d="M0 0h1500v1500H0z"/><g data-padding="20"><g transform="translate(-571.429 -573.788)scale(1.72194)"><rect width="560" height="174.02" x="86.907" y="282.078" fill="none" rx="0" ry="0" transform="translate(400.5 555.83)"/><path fill="#c53683" d="M589.727 936.608v34.57q0 2.39-.88 3.39-.89 1-2.74 1-1.61 0-2.81-1.19-1.19-1.2-2.08-2.74-.88-1.54-1.8-2.73-.93-1.19-2.16-1.19-1.54 0-3.74 1.19-2.19 1.19-5.39 2.73-3.19 1.54-7.89 2.74-4.69 1.19-11.16 1.19-12.4 0-22.26-4.16-9.85-4.16-16.78-11.7-6.93-7.55-10.59-17.87-3.66-10.31-3.66-22.71 0-12.24 3.97-22.6 3.96-10.36 11.13-17.98 7.16-7.62 16.78-11.82 9.63-4.2 21.02-4.2 8.55 0 13.86 1.62 5.32 1.62 8.36 3.31 3.04 1.7 4.58 1.7 1.85 0 2.65-1.43.81-1.42 1.66-2.81t2.62-1.39q1.15 0 1.88.7.74.69 1.28 2.38l8.08 26.18q.54 1.54-.19 2.7-.73 1.15-2.27 1.39-1.39.23-2.54-.39-1.16-.62-1.78-2.08-4.38-9.24-9.81-14.82t-12.09-8.09q-6.66-2.5-14.52-2.5-10.55 0-18.78 5.78-8.24 5.77-13.02 16.21-4.77 10.43-4.77 24.52 0 16.4 5.27 27.95 5.28 11.55 14.36 17.63 9.09 6.09 20.49 6.09 4.46 0 8.04-.77t6.08-2.24q2.51-1.46 3.85-3.58 1.35-2.11 1.35-4.89v-19.09q0-1.93-1-2.89t-3.85-1.58l-5.54-1q-1.7-.31-2.58-1.04-.89-.73-.89-1.89 0-1.23 1-1.92t2.93-.69h33.65q2 0 2.96.69.97.69.97 1.92 0 1.08-.66 1.74-.65.65-2.35 1.11l-3.62.93q-2.54.61-3.58 1.58-1.04.96-1.04 3.04m48.28-73.38v99.02q0 2.08.77 3.08t2.24 1.46l3.46.77q2.39.85 2.39 2.62 0 2.62-3.54 2.62h-27.49q-1.77 0-2.58-.7-.81-.69-.81-1.84 0-.93.61-1.58.62-.66 2.01-1.12l3.62-.77q1.54-.46 2.31-1.46t.77-3.08v-88.17q0-1.69-.58-2.5t-1.89-.88l-5.23-.24q-1.31-.23-1.89-.77-.58-.53-.58-1.46 0-1 .66-1.62.65-.61 2.34-1.23l12.86-4.54q2.39-.85 3.89-1.23 1.5-.39 2.74-.39 1.92 0 2.92 1.08t1 2.93m1.08 53.74-3.31 2.85-3-3 3.38-2.93q9.09-8.08 15.64-11.55 6.54-3.46 12.7-3.46 9.24 0 14.32 6.16t6.24 16.55l4.7 40.35q.3 2.23 1.04 3.35.73 1.12 2.34 1.58l3.24.77q1.31.38 1.96 1.04.66.65.66 1.58 0 1.15-.81 1.84-.81.7-2.66.7h-27.72q-3.54 0-3.54-2.62 0-1.77 2.31-2.62l3.62-.77q1.69-.46 2.58-1.58.88-1.11.58-3.27l-4.47-37.88q-.92-7.63-4-11.48t-8.94-3.85q-3.62 0-7.77 2.04-4.16 2.04-9.09 6.2m106.49-18.02q11.32 0 19.94 4.82 8.63 4.81 13.52 13.36 4.89 8.54 4.89 19.71 0 10.86-4.97 19.4-4.97 8.55-13.67 13.44t-20.25 4.89q-11.24 0-19.86-4.85-8.63-4.85-13.52-13.4t-4.89-19.64q0-11.01 4.93-19.48t13.67-13.36 20.21-4.89m5.39 69.07q6.47-.92 10.47-5.27 4.01-4.35 5.35-11.7 1.35-7.36-.26-17.29-1.7-10.09-5.51-16.71t-9.28-9.55q-5.47-2.92-12.09-2-6.39.92-10.43 5.27t-5.35 11.71q-1.31 7.35.31 17.28 1.69 10.01 5.5 16.68 3.81 6.66 9.28 9.58 5.47 2.93 12.01 2m77.54.94q5.78 0 9.09-3.01 3.31-3 3.31-7.77 0-3.01-1.39-5.35-1.38-2.35-5.04-4.32-3.66-1.96-10.44-3.73-10.62-2.39-16.63-5.97-6-3.58-8.47-8.16-2.46-4.58-2.46-10.05 0-9.78 7.01-15.71 7-5.93 20.09-5.93 4.85 0 7.97.81t5.2 1.7q2.08.88 3.7.88 1.54 0 2.34-.88.81-.89 1.58-1.74.77-.84 2.16-.84.92 0 1.65.61.74.62 1.27 2.31l5.63 16.25q.77 2.08.5 3.47-.27 1.38-1.74 2-1.46.54-2.5-.04t-1.96-2.04q-3.39-6.39-7.39-10.05-4.01-3.66-8.44-5.2-4.42-1.54-9.2-1.54-7.24 0-10.89 3.04-3.66 3.05-3.66 8.2 0 3.01 1.54 5.51t5.62 4.62 11.63 4.04q9.39 2.24 14.94 5.51 5.54 3.27 7.96 7.78 2.43 4.5 2.43 10.51 0 6.08-3.04 10.78-3.04 4.69-8.63 7.35-5.58 2.66-13.05 2.66-4.69 0-7.62-1.01-2.93-1-4.89-1.96t-3.73-.96q-1.54 0-2.47.96-.92.96-1.73 1.96-.81 1.01-2.04 1.01-.92 0-1.54-.66-.62-.65-.92-2.19l-3.32-15.4q-.53-2.7-.3-4.01t1.54-1.77q1.38-.54 2.42.19 1.04.74 2.2 2.58 4.39 8.32 10.04 11.94 5.66 3.62 11.67 3.62m44.43-62.14-4.16-1.08q-1.92-.54-2.66-1.23-.73-.69-.73-1.62 0-1.15.85-1.77t2.31-.62h4.93q2 0 3.27-.65t2.2-2.43l6.23-11.24q1.16-1.77 2.27-2.54 1.12-.77 2.35-.77 1.31 0 2.04.81t.73 2.27v67.84q0 5.31 2.2 8.12 2.19 2.81 6.12 2.81 2.77 0 4.35-.96t2.5-2.19q.93-1.24 1.7-2.24t2-1q.92 0 1.46.62.54.61.54 2 0 3.31-2.39 6.31-2.38 3.01-6.58 4.93-4.2 1.93-9.59 1.93-8.47 0-13.47-4.39-5.01-4.39-5.01-13.32v-45.2q0-1.85-.77-2.81-.77-.97-2.69-1.58m33.11-.31h-20.71v-6.01h24.25q1.54 0 2.35.58t.81 1.73q0 1.62-1.62 2.66t-5.08 1.04m44.43-3.01v58.75q0 2.08.77 3.12t2.31 1.42l3.46.77q1.39.39 2.04 1.04.66.66.66 1.66 0 1.15-.85 1.84-.85.7-2.69.7h-27.88q-1.77 0-2.58-.7-.81-.69-.81-1.84 0-.93.62-1.58.62-.66 2-1.04l3.62-.85q1.54-.46 2.31-1.46t.77-3.08v-47.9q0-1.69-.58-2.46-.57-.77-1.88-.92l-5.24-.23q-1.31-.24-1.89-.77-.57-.54-.57-1.39 0-1 .65-1.66.66-.65 2.35-1.27l12.86-4.54q2.46-.85 3.96-1.23 1.51-.39 2.58-.39 2.01 0 3.01 1.08t1 2.93m-9.86-18.33q-4.93 0-8.04-2.73-3.12-2.74-3.12-7.05 0-4.39 3.12-7.08 3.11-2.7 8.04-2.7 5.08 0 8.2 2.74 3.12 2.73 3.12 7.04t-3.12 7.05q-3.12 2.73-8.2 2.73m97.64 42.67q0 3.46-2.08 5.35t-6.08 1.89h-49.21v-4.93h36.96q3.85 0 3.85-3.39 0-10.32-4.46-16.05-4.47-5.74-11.94-5.74-5.85 0-10.28 3.31-4.42 3.31-6.97 9.43-2.54 6.13-2.54 14.44 0 15.32 7.36 23.26 7.35 7.93 19.21 7.93 7.62 0 13.24-3.47 5.62-3.46 7.93-9.16 1-1.23 1.66-1.73.65-.5 1.42-.5 1 0 1.5.92.51.92.43 2.16-.46 6.31-4.58 11.55-4.12 5.23-10.98 8.35-6.85 3.12-15.63 3.12-10.78 0-19.05-4.54-8.28-4.55-12.86-12.75t-4.58-19.29q0-11.24 4.46-20.05 4.47-8.82 12.74-13.94 8.28-5.12 19.68-5.12 9.47 0 16.36 3.69 6.89 3.7 10.67 10.21 3.77 6.5 3.77 15.05m-89.27-131.01h-364l182-271.2Z"/><path fill="#fff" d="M709.095 801.898c0 9.723 6.75 14.757 13.385 14.757s13.442-5.062 13.442-14.73c0-6.491 4.004-9.41 8.008-9.41s8.065 2.919 8.065 9.382c0 9.724 6.75 14.758 13.385 14.758s13.442-5.062 13.442-14.73c0-6.491 4.004-9.41 8.008-9.41s8.065 2.919 8.065 9.382c0 9.724 6.75 14.758 13.385 14.758s13.442-5.062 13.442-14.73l.028-96.467c0-30.917-24.996-56.056-55.855-56.342l-.43-.086c-31.108.032-56.32 25.234-56.37 56.342Zm56.056-147.491.257.029c28.114 0 50.994 22.88 50.994 51.022l-.057 96.468c0 6.463-4.033 9.38-8.037 9.38s-8.065-2.917-8.065-9.41a13.442 13.442 0 0 0-26.798 0c0 6.493-4.033 9.41-8.037 9.41s-8.065-2.917-8.065-9.41a13.442 13.442 0 0 0-26.798 0c0 6.493-4.033 9.41-8.037 9.41s-8.036-2.917-8.036-9.41v-96.524c0-28.028 22.708-50.822 50.68-50.965"/><path fill="#fff" d="M738.64 726.793c2.973 0 5.376-3.604 5.376-8.008q0-1.03-.2-2.002l-8.523-4.261c-1.23 1.487-2.002 3.718-2.002 6.234 0 4.433 2.402 8.037 5.348 8.037m53.625-.028c2.974 0 5.377-3.604 5.377-8.008 0-2.574-.8-4.776-2.002-6.263l-8.58 4.29q-.143.915-.143 1.944c0 4.433 2.402 8.037 5.348 8.037m-48.248 32.146a2.673 2.673 0 0 0 2.66-2.66 18.79 18.79 0 0 1 37.551 0 2.688 2.688 0 1 0 5.348 0 24.167 24.167 0 0 0-48.248 0c0 1.459 1.201 2.66 2.69 2.66"/></g><path fill="transparent" stroke="transparent" stroke-width="1.786" d="M250 316.071h1000v867.858H250z"/></g></svg>